# AST/ASF file generated using VICON BodyLanguage
# -----------------------------------------------
:version 1.10
:name VICON
:units
  mass 1.0
  length 0.45
  angle deg
:documentation
   .ast/.asf automatically generated from VICON data using
   VICON BodyBuilder and BodyLanguage model FoxedUp or BRILLIANT.MOD
:root
   order TX TY TZ RX RY RZ
   axis XYZ
   position 0 0 0  
   orientation 0 0 0 
:bonedata
  begin
     id 1 
     name lhipjoint
     direction 0.693937 -0.600361 0.397515 
     length 2.37164 
     axis 0 0 0  XYZ
  end
  begin
     id 2 
     name lfemur
     direction 0.34202 -0.939693 0  
     length 6.18497  
     axis 0 0 20  XYZ
    dof rx ry rz
    limits (-160.0 20.0)
           (-70.0 70.0)
           (-60.0 70.0)
  end
  begin
     id 3 
     name ltibia
     direction 0.34202 -0.939693 0   
     length 6.91601   
     axis 0 0 20   XYZ
    dof rx
    limits (-10.0 170.0)
  end
  begin
     id 4 
     name lfoot
     direction 0.0978718 -0.2689 0.958182   
     length 1.81453   
     axis -90 7.62852e-016 20   XYZ
    dof rx rz
    limits (-45.0 90.0)
           (-70.0 20.0)
  end
  begin
     id 5 
     name ltoes
     direction 1.53569e-011 -4.21951e-011 1   
     length 0.912052   
     axis -90 7.62852e-016 20   XYZ
    dof rx
    limits (-90.0 20.0)
  end
  begin
     id 6 
     name rhipjoint
     direction -0.643996 -0.637876 0.422354   
     length 2.23216  
     axis 0 0 0  XYZ 
  end
  begin
     id 7 
     name rfemur
     direction -0.34202 -0.939693 0   
     length 6.15404   
     axis 0 0 -20   XYZ
    dof rx ry rz
    limits (-160.0 20.0)
           (-70.0 70.0)
           (-70.0 60.0)
  end
  begin
     id 8 
     name rtibia
     direction -0.34202 -0.939693 0   
     length 6.86744   
     axis 0 0 -20   XYZ
    dof rx
    limits (-10.0 170.0)
 end
 begin
     id 9 
     name rfoot
     direction -0.118701 -0.326127 0.937844   
     length 1.9243  
     axis -90 -7.62852e-016 -20   XYZ
    dof rx rz
    limits (-45.0 90.0)
           (-20.0 70.0)
  end
  begin
     id 10 
     name rtoes
     direction -1.5356e-011 -4.2181e-011 1   
     length 0.958865   
     axis -90 -7.62852e-016 -20   XYZ
    dof rx
    limits (-90.0 20.0)
  end
  begin
     id 11 
     name lowerback
     direction 0.0310826 0.968686 -0.246334   
     length 2.00021   
     axis 0 0 0   XYZ
    dof rx ry rz
    limits (-20.0 45.0)
           (-30.0 30.0)
           (-30.0 30.0)
  end
  begin
     id 12 
     name upperback
     direction -0.0152834 0.999474 -0.0286152   
     length 2.03728   
     axis 0 0 0   XYZ
    dof rx ry rz
    limits (-20.0 45.0)
           (-30.0 30.0)
           (-30.0 30.0)
  end
  begin
     id 13 
     name thorax
     direction -0.0323701 0.996236 0.0804149   
     length 2.16   
     axis 0 0 0   XYZ
    dof rx ry rz
    limits (-20.0 45.0)
           (-30.0 30.0)
           (-30.0 30.0)
  end
  begin
     id 14 
     name lowerneck
     direction 0.0307935 0.982251 0.185027   
     length 1.43558   
     axis 0 0 0   XYZ
    dof rx ry rz
    limits (-20.0 45.0)
           (-30.0 30.0)
           (-30.0 30.0)
  end
  begin
     id 15 
     name upperneck
     direction -0.0927153 0.994775 0.0427454   
     length 1.44603   
     axis 0 0 0   XYZ
    dof rx ry rz
    limits (-20.0 45.0)
           (-30.0 30.0)
           (-30.0 30.0)
  end
  begin
     id 16
     name head
     direction -0.0341265 0.999406 -0.00472033  
     length 1.45931  
     axis 0 0 0   XYZ
    dof rx ry rz
    limits (-20.0 45.0)
           (-30.0 30.0)
           (-30.0 30.0)
  end
  begin
     id 17 
     name lclavicle
     direction 0.820755 0.555306 -0.134151  
     length 2.66075  
     axis 0 0 0   XYZ
    dof ry rz
    limits (-20.0 10.0)
           (0.0 20.0)
  end
  begin
     id 18 
     name lhumerus
     direction 1 -4.48971e-011 5.24853e-027   
     length 5.0546   
     axis -180 -30 -90   XYZ
    dof rx ry rz
    limits (-60.0 90.0)
           (-90.0 90.0)
           (-90.0 90.0)
  end
  begin
     id 19
     name lradius
     direction 1 -4.48971e-011 2.76575e-028   
     length 3.39013   
     axis -180 -30 -90   XYZ
    dof rx
    limits (-10.0 170.0)
  end
  begin
     id 20
     name lwrist
     direction 1 -4.48939e-011 -2.27826e-027   
     length 1.69507   
     axis 2.17013e-015 90 90   XYZ
    dof ry
    limits (-180.0 0.0)
 end
  begin
     id 21 
     name lhand
     direction 1 -4.49009e-011 -4.55652e-027   
     length 0.572425   
     axis 2.90745e-015 90 90   XYZ
    dof rx rz
    limits (-90.0 90.0)
           (-45.0 45.0)
  end
  begin
     id 22 
     name lfingers
     direction 1 -4.48955e-011 -9.11303e-027   
     length 0.461504   
     axis 5.81489e-015 90 90   XYZ
    dof rx
    limits (0.0 90.0)
  end
  begin
     id 23
     name lthumb
     direction 0.707107 -6.34929e-011 0.707107   
     length 0.66263   
     axis -90 45 2.85299e-015   XYZ
    dof rx rz
    limits (-45.0 45.0)
           (-45.0 45.0)
  end
  begin
     id 24 
     name rclavicle
     direction -0.754477 0.632921 -0.173712   
     length 2.73081  
     axis 0 0 0   XYZ 
    dof ry rz
    limits (-10.0 20.0)
           (-20.0 0.0)
  end
  begin
     id 25 
     name rhumerus
     direction -1 -4.48969e-011 5.1496e-027  
     length 5.0701   
     axis -180 30 90   XYZ
    dof rx ry rz
    limits (-90.0 60.0)
           (-90.0 90.0)
           (-90.0 90.0)
  end
  begin
     id 26 
     name rradius
     direction -1 -4.48967e-011 -7.15624e-028   
     length 3.14957   
     axis -180 30 90   XYZ
    dof rx
    limits (-10.0 170.0)
  end
  begin
     id 27 
     name rwrist
     direction -1 -4.48938e-011 -2.27826e-027   
     length 1.57479   
     axis 2.17013e-015 -90 -90   XYZ
    dof ry
    limits (-180.0 0.0)
  end
  begin
     id 28
     name rhand
     direction -1 -4.49008e-011 -4.55652e-027   
     length 0.718191   
     axis 2.90745e-015 -90 -90   XYZ
    dof rx rz
    limits (-90.0 90.0)
           (-45.0 45.0)
  end
  begin
     id 29
     name rfingers
     direction -1 -4.48953e-011 -9.11303e-027   
     length 0.579024   
     axis 5.81489e-015 -90 -90   XYZ
    dof rx
    limits (0.0 90.0)
  end
  begin
     id 30
     name rthumb
     direction -0.707107 -6.34937e-011 0.707107   
     length 0.831366   
     axis -90 -45 -2.85299e-015   XYZ
    dof rx rz
    limits (-45.0 45.0)
           (-45.0 45.0)
  end
:hierarchy
  begin
    root lhipjoint rhipjoint lowerback
    lhipjoint lfemur
    lfemur ltibia
    ltibia lfoot
    lfoot ltoes
    rhipjoint rfemur
    rfemur rtibia
    rtibia rfoot
    rfoot rtoes
    lowerback upperback
    upperback thorax
    thorax lowerneck lclavicle rclavicle
    lowerneck upperneck
    upperneck head
    lclavicle lhumerus
    lhumerus lradius
    lradius lwrist
    lwrist lhand lthumb
    lhand lfingers
    rclavicle rhumerus
    rhumerus rradius
    rradius rwrist
    rwrist rhand rthumb
    rhand rfingers
  end

#!OML:ASF H:\Male1\Project 1\Capture day 1\Session 1\Male1.ASF
:FULLY-SPECIFIED
:DEGREES
1
root 27.3358 15.048 -2.3361 15.0621 -76.3619 -13.3453
lowerback 6.21099 0.368173 0.388228
upperback 4.78885 0.39078 0.610995
thorax 1.4482 0.147903 0.390159
lowerneck -9.77133 3.94411 7.34446
upperneck 17.7721 5.28383 -6.99248
head 7.44226 2.34019 -3.01704
rclavicle -1.78906e-015 -5.96354e-016
rhumerus -33.6863 -4.5868 -84.5857
rradius 27.3864
rwrist -14.1513
rhand -16.0784 -0.494197
rfingers 7.12502
rthumb 10.1245 -30.2306
lclavicle -1.78906e-015 -5.96354e-016
lhumerus -28.1291 -1.75564 88.4818
lradius 32.1208
lwrist 13.0729
lhand -19.7894 17.0623
lfingers 7.12502
lthumb 6.54313 46.9413
rfemur -23.9875 6.59213 29.4225
rtibia 34.4819
rfoot -21.8191 -23.6069
rtoes -16.2588
lfemur 3.41676 0.423902 -19.1505
ltibia 51.198
lfoot 3.48272 -0.650579
ltoes -25.7343
2
root 27.0576 15.0684 -2.28601 18.0949 -76.4014 -16.8745
lowerback 6.68113 0.582263 1.33627
upperback 4.92287 0.712839 0.771714
thorax 1.337 0.325348 0.00487487
lowerneck -9.4567 3.79618 7.543
upperneck 17.2898 5.05169 -6.98876
head 7.21635 2.2547 -3.07188
rclavicle -1.90336e-014 -7.95139e-016
rhumerus -33.7273 -3.75185 -84.9464
rradius 28.5045
rwrist -15.3618
rhand -16.4863 -0.329729
rfingers 7.12502
rthumb 9.73103 -30.0849
lclavicle -1.90336e-014 -7.95139e-016
lhumerus -28.8721 -2.03429 88.1862
lradius 32.4522
lwrist 12.749
lhand -20.0556 16.1338
lfingers 7.12502
lthumb 6.28619 46.0205
rfemur -21.7602 6.86322 30.5695
rtibia 33.5318
rfoot -22.1468 -23.7113
rtoes -15.5805
lfemur -0.0833989 0.854795 -17.7889
ltibia 57.3991
lfoot 2.69583 -0.948416
ltoes -29.7291
3
root 26.7814 15.0848 -2.23676 20.3474 -76.6243 -19.5476
lowerback 7.00168 0.805857 1.87928
upperback 5.12904 1.02738 0.924048
thorax 1.3854 0.489555 -0.161914
lowerneck -9.30732 3.66208 7.30245
upperneck 16.825 4.84291 -6.64129
head 7.009 2.17721 -2.93569
rclavicle 1.64494e-014 0
rhumerus -33.4932 -2.52563 -85.3834
rradius 29.6176
rwrist -16.3668
rhand -17.1617 -0.805816
rfingers 7.12502
rthumb 9.07936 -30.5904
lclavicle 1.64494e-014 0
lhumerus -29.4744 -1.97051 87.8913
lradius 32.7875
lwrist 12.4429
lhand -19.9634 15.0149
lfingers 7.12502
lthumb 6.37512 44.8989
rfemur -19.6516 7.61667 31.4234
rtibia 32.6939
rfoot -22.6462 -24.0808
rtoes -15.0005
lfemur -3.23858 1.22963 -16.8251
ltibia 62.4559
lfoot 0.889791 -0.185347
ltoes -29.824
4
root 26.5042 15.0947 -2.18795 22.0315 -76.8728 -21.6735
lowerback 7.30342 1.01995 2.24095
upperback 5.3954 1.31803 1.01922
thorax 1.50796 0.638798 -0.284737
lowerneck -9.15725 3.52281 7.09863
upperneck 16.3535 4.62842 -6.32694
head 6.80295 2.09548 -2.81762
rclavicle 2.01269e-014 -5.76476e-015
rhumerus -32.9705 -1.42615 -85.7869
rradius 30.4436
rwrist -17.0193
rhand -17.7928 -1.01581
rfingers 7.12502
rthumb 8.47032 -30.8259
lclavicle 2.01269e-014 -5.76476e-015
lhumerus -29.9479 -1.71019 87.5167
lradius 33.0215
lwrist 11.9074
lhand -19.8649 14.0913
lfingers 7.12502
lthumb 6.47029 43.9724
rfemur -17.4872 8.43872 32.1598
rtibia 31.863
rfoot -23.1766 -24.6393
rtoes -15.2595
lfemur -6.56351 1.44206 -16.1307
ltibia 66.6732
lfoot -0.971485 0.723585
ltoes -25.6541
5
root 26.2295 15.1081 -2.13121 23.0298 -77.132 -22.9629
lowerback 7.53206 1.23193 2.63114
upperback 5.59707 1.61259 0.949314
thorax 1.61315 0.795854 -0.593588
lowerneck -9.06093 3.34599 7.00383
upperneck 16.0807 4.34661 -6.00433
head 6.66975 1.98488 -2.7221
rclavicle 4.57205e-015 -1.66979e-014
rhumerus -32.3388 -0.802122 -86.1141
rradius 31.044
rwrist -17.365
rhand -18.2855 -0.771361
rfingers 7.12502
rthumb 7.99478 -30.6002
lclavicle 4.57205e-015 -1.66979e-014
lhumerus -30.4163 -1.59559 87.1033
lradius 33.235
lwrist 11.554
lhand -20.1683 14.7104
lfingers 7.12502
lthumb 6.17738 44.6003
rfemur -15.505 8.99396 32.6404
rtibia 31.1057
rfoot -24.001 -25.0897
rtoes -15.9497
lfemur -9.92779 1.35201 -15.8082
ltibia 70.0959
lfoot -2.70124 2.02113
ltoes -22.1264
6
root 25.9556 15.1211 -2.06888 23.4982 -77.3384 -23.6634
lowerback 7.80832 1.40081 3.03421
upperback 5.75191 1.85679 0.820643
thorax 1.64965 0.929751 -0.969761
lowerneck -9.00627 3.14599 6.75431
upperneck 15.9716 4.04317 -5.58805
head 6.5911 1.85906 -2.57304
rclavicle 2.06239e-014 2.38542e-015
rhumerus -31.6654 -0.341737 -86.3913
rradius 31.5674
rwrist -17.6845
rhand -18.5412 -0.288249
rfingers 7.12502
rthumb 7.74797 -30.1263
lclavicle 2.06239e-014 2.38542e-015
lhumerus -30.8603 -1.58156 86.7537
lradius 33.3803
lwrist 11.6014
lhand -20.9348 15.7649
lfingers 7.12502
lthumb 5.43732 45.6752
rfemur -13.6431 9.23117 32.9538
rtibia 30.4643
rfoot -24.7419 -25.4463
rtoes -17.1582
lfemur -13.4737 1.16286 -15.8223
ltibia 72.4149
lfoot -3.62443 3.73783
ltoes -26.5556
7
root 25.6845 15.1209 -2.00839 24.4942 -77.355 -24.9052
lowerback 8.18421 1.47825 3.51913
upperback 5.82191 1.99392 0.787829
thorax 1.54297 1.00899 -1.29186
lowerneck -8.87574 2.92124 6.43936
upperneck 16.103 3.72291 -5.17754
head 6.57573 1.71868 -2.41876
rclavicle -2.74323e-014 4.96962e-015
rhumerus -31.0901 0.236043 -86.6676
rradius 32.0933
rwrist -18.0325
rhand -18.4882 0.126701
rfingers 7.12502
rthumb 7.79919 -29.7095
lclavicle -2.74323e-014 4.96962e-015
lhumerus -31.4217 -1.19898 86.2815
lradius 33.2965
lwrist 11.4278
lhand -21.188 16.414
lfingers 7.12502
lthumb 5.19286 46.3304
rfemur -11.8291 9.36484 33.4653
rtibia 29.9224
rfoot -25.1183 -25.7136
rtoes -18.7207
lfemur -16.8092 0.685839 -15.6224
ltibia 73.8958
lfoot -5.6755 4.7447
ltoes -23.3759
8
root 25.4075 15.1104 -1.94721 24.8229 -77.4333 -25.4188
lowerback 8.46982 1.53715 3.71947
upperback 5.86546 2.09068 0.766505
thorax 1.44608 1.06026 -1.43953
lowerneck -8.90473 2.9136 6.24859
upperneck 16.2754 3.68871 -4.86286
head 6.62486 1.71428 -2.28918
rclavicle -2.26615e-014 -4.77083e-015
rhumerus -30.5393 1.00215 -86.9112
rradius 32.5967
rwrist -18.3937
rhand -18.3524 -0.0150173
rfingers 7.12502
rthumb 7.9302 -29.8463
lclavicle -2.26615e-014 -4.77083e-015
lhumerus -32.0395 -0.47419 85.7516
lradius 33.0181
lwrist 10.7974
lhand -20.9085 18.2084
lfingers 7.12502
lthumb 5.46268 48.118
rfemur -10.0257 9.46113 33.8068
rtibia 29.4184
rfoot -26.0098 -25.7221
rtoes -19.1433
lfemur -19.8464 -0.00696875 -15.6436
ltibia 74.3854
lfoot -8.20852 6.1222
ltoes -21.6848
9
root 25.1209 15.1029 -1.88737 23.8423 -77.736 -24.6244
lowerback 8.68711 1.6517 3.44503
upperback 5.97375 2.22495 0.69613
thorax 1.4373 1.11928 -1.37254
lowerneck -8.94896 2.87834 5.89886
upperneck 16.3697 3.61896 -4.42548
head 6.64467 1.69361 -2.09622
rclavicle -7.85199e-015 2.5842e-015
rhumerus -29.9529 1.79795 -87.0978
rradius 33.127
rwrist -18.78
rhand -18.209 -0.478212
rfingers 7.12502
rthumb 8.06863 -30.3042
lclavicle -7.85199e-015 2.5842e-015
lhumerus -32.5655 0.371174 85.2874
lradius 32.6809
lwrist 9.91728
lhand -21.6213 15.5129
lfingers 7.12502
lthumb 4.77443 45.4391
rfemur -8.07625 9.75876 33.8384
rtibia 28.8322
rfoot -27.3966 -25.7868
rtoes -18.3746
lfemur -22.5165 -0.731916 -16.0609
ltibia 73.865
lfoot -10.3007 8.34134
ltoes -20.3286
10
root 24.8289 15.0943 -1.82865 23.5473 -78.0397 -24.5685
lowerback 9.00458 1.77729 3.34377
upperback 6.06196 2.38816 0.599869
thorax 1.36312 1.19664 -1.43541
lowerneck -9.11976 2.8031 5.73744
upperneck 16.62 3.4909 -4.168
head 6.74064 1.63991 -1.99696
rclavicle -3.8763e-015 1.0138e-014
rhumerus -29.4481 2.4111 -87.3412
rradius 33.7764
rwrist -19.4255
rhand -17.9272 -0.625598
rfingers 7.12502
rthumb 8.3406 -30.4409
lclavicle -3.8763e-015 1.0138e-014
lhumerus -33.0712 1.31907 84.6741
lradius 32.2873
lwrist 8.8125
lhand -21.9381 14.2843
lfingers 7.12502
lthumb 4.46851 44.2172
rfemur -5.96896 10.3817 34.1101
rtibia 28.0638
rfoot -28.6305 -26.1217
rtoes -17.7084
lfemur -24.9333 -1.42788 -16.2382
ltibia 72.4334
lfoot -11.9638 10.7029
ltoes -16.1634
11
root 24.5326 15.0868 -1.76523 24.5991 -78.1739 -25.7283
lowerback 9.13848 1.94948 3.73224
upperback 6.1167 2.64348 0.460832
thorax 1.38802 1.3377 -1.81736
lowerneck -9.12889 2.59939 5.6261
upperneck 16.6146 3.15999 -3.76611
head 6.71555 1.50698 -1.87788
rclavicle -2.59414e-014 1.03368e-014
rhumerus -28.9604 2.49136 -87.584
rradius 34.4071
rwrist -20.2721
rhand -17.4281 -0.649957
rfingers 7.12502
rthumb 8.82229 -30.4455
lclavicle -2.59414e-014 1.03368e-014
lhumerus -33.4665 1.91753 83.9752
lradius 31.8495
lwrist 7.74345
lhand -21.9407 14.6691
lfingers 7.12502
lthumb 4.466 44.602
rfemur -3.88179 11.0242 34.6864
rtibia 26.9759
rfoot -29.4202 -26.5385
rtoes -17.3328
lfemur -27.2796 -2.15785 -16.0245
ltibia 70.1625
lfoot -13.5156 13.5305
ltoes -13.3091
12
root 24.2303 15.0899 -1.69872 24.956 -78.2543 -25.9734
lowerback 9.02017 2.12197 4.01302
upperback 6.12732 2.88789 0.268786
thorax 1.50578 1.47508 -2.18399
lowerneck -9.46064 2.50213 5.81208
upperneck 16.8758 2.95488 -3.60768
head 6.84884 1.43052 -1.87359
rclavicle 1.61016e-014 5.56597e-015
rhumerus -28.6374 2.4067 -87.8042
rradius 35.0428
rwrist -20.739
rhand -17.1383 -0.653345
rfingers 7.12502
rthumb 9.10194 -30.4369
lclavicle 1.61016e-014 5.56597e-015
lhumerus -33.8304 2.39793 83.3028
lradius 31.446
lwrist 6.76894
lhand -21.7516 15.8023
lfingers 7.12502
lthumb 4.64859 45.7313
rfemur -1.82724 11.4528 35.0475
rtibia 25.5521
rfoot -29.7781 -26.9807
rtoes -17.3768
lfemur -29.3501 -2.92809 -15.9375
ltibia 67.0753
lfoot -15.0661 16.7497
ltoes -13.47
13
root 23.9141 15.107 -1.62632 24.2559 -78.7019 -25.088
lowerback 8.80483 2.31922 3.87266
upperback 6.08562 3.13748 -0.00205159
thorax 1.60444 1.60472 -2.39336
lowerneck -9.44649 2.42717 5.68946
upperneck 16.8798 2.81049 -3.25546
head 6.83439 1.38289 -1.75237
rclavicle 7.50412e-014 -1.63003e-014
rhumerus -28.674 2.80488 -88.2144
rradius 36.0444
rwrist -20.8091
rhand -17.4922 -0.339559
rfingers 7.12502
rthumb 8.76037 -30.1378
lclavicle 7.50412e-014 -1.63003e-014
lhumerus -34.3611 3.28677 82.5007
lradius 31.1247
lwrist 5.3496
lhand -21.4771 14.5547
lfingers 7.12502
lthumb 4.91365 44.4778
rfemur 0.535409 11.6875 34.943
rtibia 23.5792
rfoot -29.6963 -27.1728
rtoes -17.544
lfemur -30.6765 -3.49071 -16.1468
ltibia 63.1626
lfoot -16.9768 19.0667
ltoes -10.2847
